<svg width="80" height="32" viewBox="0 0 80 32" fill="none" xmlns="http://www.w3.org/2000/svg">
<rect width="80" height="32" rx="3" fill="#FFAB5C"/>
<path d="M44.7847 14.8789C45.6816 14.9657 46.3651 15.2433 46.8353 15.712C47.3055 16.1719 47.5406 16.762 47.5406 17.4823C47.5406 18.0029 47.41 18.4759 47.1488 18.9011C46.8876 19.3177 46.4957 19.6518 45.9733 19.9034C45.4595 20.1464 44.8282 20.2679 44.0794 20.2679C43.4263 20.2679 42.7994 20.1724 42.1986 19.9815C41.5978 19.7819 41.1058 19.5086 40.7227 19.1614L41.3235 18.1331C41.6369 18.4282 42.0375 18.6668 42.5251 18.849C43.0127 19.0226 43.5308 19.1094 44.0794 19.1094C44.7586 19.1094 45.2854 18.9662 45.6598 18.6798C46.0429 18.3934 46.2345 17.9986 46.2345 17.4953C46.2345 16.992 46.0473 16.6014 45.6729 16.3238C45.2984 16.0461 44.7325 15.9072 43.9749 15.9072H43.2435V14.996L45.5422 12.1844H41.1406V11.0519H47.1749V11.937L44.7847 14.8789Z" fill="white"/>
<path d="M53.3563 14.6316C53.9571 14.6316 54.4927 14.7444 54.9629 14.97C55.4418 15.1956 55.8162 15.521 56.0861 15.9463C56.3561 16.3628 56.491 16.8444 56.491 17.3911C56.491 17.9639 56.3473 18.4672 56.06 18.9011C55.7814 19.335 55.3939 19.6734 54.8976 19.9164C54.4099 20.1507 53.8614 20.2679 53.2518 20.2679C52.0241 20.2679 51.075 19.873 50.4045 19.0833C49.7427 18.2937 49.4118 17.1742 49.4118 15.725C49.4118 14.7097 49.5903 13.8462 49.9473 13.1346C50.3131 12.4143 50.8181 11.872 51.4625 11.5075C52.1155 11.1343 52.8731 10.9478 53.7351 10.9478C54.1792 10.9478 54.5971 10.9955 54.989 11.0909C55.3808 11.1777 55.7204 11.3079 56.0078 11.4814L55.5114 12.4968C55.0761 12.2104 54.4927 12.0672 53.7612 12.0672C52.8121 12.0672 52.0676 12.3623 51.5278 12.9524C50.9879 13.5338 50.718 14.3842 50.718 15.5037C50.718 15.6425 50.7223 15.751 50.731 15.8291C50.9922 15.4386 51.3493 15.1436 51.802 14.944C52.2635 14.7357 52.7816 14.6316 53.3563 14.6316ZM53.1996 19.2135C53.8004 19.2135 54.288 19.053 54.6625 18.7319C55.0369 18.4108 55.2241 17.9812 55.2241 17.4432C55.2241 16.9052 55.0325 16.48 54.6494 16.1676C54.275 15.8465 53.7699 15.6859 53.1343 15.6859C52.725 15.6859 52.3593 15.764 52.0371 15.9202C51.7237 16.0764 51.4755 16.289 51.2927 16.5581C51.1185 16.8271 51.0314 17.1265 51.0314 17.4562C51.0314 17.7773 51.1142 18.0724 51.2796 18.3414C51.4537 18.6017 51.7019 18.8143 52.0241 18.9792C52.355 19.1354 52.7468 19.2135 53.1996 19.2135Z" fill="white"/>
<path d="M61.8616 20.2679C61.1389 20.2679 60.4946 20.0857 59.9286 19.7212C59.3713 19.348 58.9316 18.81 58.6094 18.1071C58.2872 17.4042 58.1261 16.5711 58.1261 15.6078C58.1261 14.6446 58.2872 13.8115 58.6094 13.1086C58.9316 12.4057 59.3713 11.872 59.9286 11.5075C60.4946 11.1343 61.1389 10.9478 61.8616 10.9478C62.5756 10.9478 63.2113 11.1343 63.7686 11.5075C64.3346 11.872 64.7786 12.4057 65.1008 13.1086C65.423 13.8115 65.5841 14.6446 65.5841 15.6078C65.5841 16.5711 65.423 17.4042 65.1008 18.1071C64.7786 18.81 64.3346 19.348 63.7686 19.7212C63.2113 20.0857 62.5756 20.2679 61.8616 20.2679ZM61.8616 19.1094C62.5931 19.1094 63.1765 18.81 63.6118 18.2112C64.0559 17.6124 64.278 16.7446 64.278 15.6078C64.278 14.471 64.0559 13.6032 63.6118 13.0044C63.1765 12.4057 62.5931 12.1063 61.8616 12.1063C61.1215 12.1063 60.5294 12.4057 60.0853 13.0044C59.6499 13.6032 59.4322 14.471 59.4322 15.6078C59.4322 16.7446 59.6499 17.6124 60.0853 18.2112C60.5294 18.81 61.1215 19.1094 61.8616 19.1094Z" fill="white"/>
<path d="M69.632 15.2043C69.2402 15.2043 68.8788 15.1132 68.548 14.9309C68.2258 14.74 67.9689 14.484 67.7773 14.1629C67.5858 13.8332 67.49 13.473 67.49 13.0825C67.49 12.7007 67.5858 12.3492 67.7773 12.0282C67.9689 11.6984 68.2258 11.4424 68.548 11.2602C68.8788 11.0692 69.2402 10.9738 69.632 10.9738C70.0239 10.9738 70.3852 11.0692 70.7161 11.2602C71.047 11.4424 71.3082 11.6984 71.4998 12.0282C71.6914 12.3492 71.7871 12.7007 71.7871 13.0825C71.7871 13.473 71.6914 13.8332 71.4998 14.1629C71.3082 14.484 71.047 14.74 70.7161 14.9309C70.3852 15.1132 70.0239 15.2043 69.632 15.2043ZM69.632 14.5014C70.0326 14.5014 70.3678 14.3669 70.6378 14.0979C70.9077 13.8202 71.0427 13.4817 71.0427 13.0825C71.0427 12.6833 70.9077 12.3492 70.6378 12.0802C70.3678 11.8025 70.0326 11.6637 69.632 11.6637C69.2315 11.6637 68.8963 11.7982 68.6263 12.0672C68.3564 12.3362 68.2214 12.6747 68.2214 13.0825C68.2214 13.4904 68.3564 13.8288 68.6263 14.0979C68.8963 14.3669 69.2315 14.5014 69.632 14.5014Z" fill="white"/>
<path fill-rule="evenodd" clip-rule="evenodd" d="M21.8337 4.06627C22.0252 3.97791 22.246 3.97791 22.4375 4.06627L31.0615 8.0453C31.3156 8.16254 31.4783 8.41619 31.4783 8.69525V18.5633C31.4783 18.8346 31.3245 19.0826 31.081 19.2039L22.457 23.5013C22.2547 23.6021 22.0165 23.6021 21.8142 23.5013L13.1902 19.2039C12.9468 19.0826 12.793 18.8346 12.793 18.5633V8.69525C12.793 8.41619 12.9556 8.16254 13.2097 8.0453L21.8337 4.06627ZM14.2303 9.85413L21.4169 13.4353V21.7018L14.2303 18.1207V9.85413ZM22.8543 21.7018L30.0409 18.1207V9.84503C28.7384 10.4834 27.1461 11.2664 25.7575 11.9548C24.8644 12.3975 24.0572 12.8002 23.466 13.0998C23.22 13.2245 23.0133 13.3304 22.8543 13.4133V21.7018ZM22.1157 12.1819C22.2917 12.0894 22.53 11.9672 22.8145 11.823C23.4114 11.5205 24.2232 11.1154 25.1174 10.6722C26.3979 10.0374 27.8507 9.32261 29.0907 8.71449L22.1356 5.50549L15.1684 8.72008L22.1157 12.1819Z" fill="white"/>
<path fill-rule="evenodd" clip-rule="evenodd" d="M8.23493 19.3739C8.70131 18.2457 9.83474 17.2367 11.4499 16.439L11.6627 16.8668C10.0963 17.6403 9.08113 18.5804 8.67792 19.5558C8.28331 20.5103 8.47364 21.5035 9.2801 22.4448C10.0953 23.3962 11.5015 24.2444 13.3619 24.8743C15.0555 25.4477 18.4592 25.8924 20.8081 26.0266L20.0481 25.2691L20.3869 24.9315L21.754 26.294L20.3869 27.6566L20.0481 27.3189L20.862 26.5078C18.4923 26.3782 14.9814 25.9269 13.2078 25.3264C11.3044 24.6819 9.80849 23.7968 8.91574 22.7549C8.01426 21.7027 7.75995 20.5229 8.23493 19.3739Z" fill="white"/>
<path fill-rule="evenodd" clip-rule="evenodd" d="M35.7924 19.3739C35.326 18.2457 34.1926 17.2367 32.5774 16.439L32.3647 16.8668C33.931 17.6403 34.9462 18.5804 35.3494 19.5558C35.744 20.5103 35.5537 21.5035 34.7472 22.4448C33.9321 23.3962 32.5258 24.2444 30.6654 24.8743C28.817 25.5001 24.9314 25.9726 22.6036 26.0554L22.6206 26.5326C24.9629 26.4493 28.9042 25.9749 30.8196 25.3264C32.723 24.6819 34.2188 23.7968 35.1116 22.7549C36.0131 21.7027 36.2674 20.5229 35.7924 19.3739Z" fill="white"/>
</svg>
