<svg width="65" height="32" viewBox="0 0 65 32" fill="none" xmlns="http://www.w3.org/2000/svg">
<rect width="65" height="32" rx="3" fill="#0070C9"/>
<path d="M45.0293 18.4281H40.1526L39.1432 20.7061H37.793L41.9486 11.5942H43.2464L47.4152 20.7061H46.0387L45.0293 18.4281ZM44.5704 17.3868L42.591 12.922L40.6115 17.3868H44.5704Z" fill="white"/>
<path d="M55.5746 20.7061L53.5951 17.9075C53.3504 17.9248 53.1582 17.9335 53.0183 17.9335H50.7504V20.7061H49.4395V11.5942H53.0183C54.2069 11.5942 55.142 11.8763 55.8237 12.4403C56.5054 13.0044 56.8462 13.7811 56.8462 14.7704C56.8462 15.4733 56.6714 16.0721 56.3219 16.5667C55.9723 17.0614 55.4741 17.4215 54.8274 17.6471L57.0035 20.7061H55.5746ZM52.979 16.8271C53.8093 16.8271 54.4429 16.6492 54.8798 16.2934C55.3168 15.9376 55.5353 15.4299 55.5353 14.7704C55.5353 14.1108 55.3168 13.6075 54.8798 13.2604C54.4429 12.9046 53.8093 12.7267 52.979 12.7267H50.7504V16.8271H52.979Z" fill="white"/>
<path fill-rule="evenodd" clip-rule="evenodd" d="M20.6919 4.42871L31.5009 9.79518V22.1382L20.6919 27.5047L9.88281 22.1382V9.79518L20.6919 4.42871ZM20.4435 5.06147L10.6253 9.93599L20.4617 14.8196L20.4435 5.06147ZM20.2303 15.2141L10.3417 10.3046V21.5782L20.2303 15.2141ZM10.5738 21.9719L20.4624 26.8813V15.6077L10.5738 21.9719ZM20.9213 15.6077V26.8813L30.8099 21.9719L20.9213 15.6077ZM31.042 21.5782L21.1332 15.2011C21.141 15.197 21.1488 15.1929 21.1568 15.1887C21.3672 15.0781 21.6642 14.9262 22.0283 14.7424C22.7562 14.3748 23.7485 13.8815 24.8447 13.3402C26.9013 12.3244 29.3217 11.1402 31.042 10.3016V21.5782ZM30.7546 9.93409C29.0397 10.7701 26.6642 11.9326 24.6403 12.9322C23.5438 13.4737 22.55 13.9677 21.8203 14.3362C21.4556 14.5204 21.156 14.6736 20.9422 14.7859C20.9349 14.7898 20.9277 14.7936 20.9206 14.7973L20.9024 5.04268L30.7546 9.93409Z" fill="white"/>
<path fill-rule="evenodd" clip-rule="evenodd" d="M20.6892 23.6484C21.0693 23.6484 21.3775 23.9545 21.3775 24.3319V26.1441L23.1242 25.2769C23.4642 25.1081 23.8777 25.2449 24.0477 25.5826C24.2177 25.9202 24.0799 26.3308 23.7399 26.4996L20.997 27.8614C20.8032 27.9576 20.5751 27.9576 20.3813 27.8614L17.6385 26.4996C17.2984 26.3308 17.1606 25.9202 17.3306 25.5826C17.5007 25.2449 17.9141 25.1081 18.2542 25.2769L20.0008 26.1441V24.3319C20.0008 23.9545 20.309 23.6484 20.6892 23.6484Z" fill="white"/>
<path fill-rule="evenodd" clip-rule="evenodd" d="M20.6892 8.28516C21.0693 8.28516 21.3775 7.97914 21.3775 7.60165V5.7895L23.1242 6.65668C23.4642 6.8255 23.8777 6.68865 24.0477 6.35101C24.2177 6.01337 24.0799 5.60281 23.7399 5.43399L20.997 4.07221C20.8032 3.976 20.5751 3.976 20.3813 4.07221L17.6385 5.43399C17.2984 5.60281 17.1606 6.01337 17.3306 6.35101C17.5007 6.68865 17.9141 6.8255 18.2542 6.65668L20.0008 5.7895V7.60165C20.0008 7.97914 20.309 8.28516 20.6892 8.28516Z" fill="white"/>
<path fill-rule="evenodd" clip-rule="evenodd" d="M28.1653 20.0652C27.9565 20.3806 28.0446 20.8044 28.3623 21.0118L29.8737 21.9987L28.4075 22.7516C28.0698 22.9251 27.9376 23.3374 28.1123 23.6728C28.2869 24.0081 28.7022 24.1393 29.0399 23.9659L31.5509 22.6765C31.7753 22.5612 31.9182 22.3331 31.9229 22.0823L31.9809 19.0378C31.9881 18.6604 31.6858 18.3486 31.3057 18.3415C30.9256 18.3343 30.6117 18.6345 30.6045 19.0119L30.5701 20.8173L29.1187 19.8696C28.8011 19.6622 28.3742 19.7498 28.1653 20.0652Z" fill="white"/>
<path fill-rule="evenodd" clip-rule="evenodd" d="M13.28 20.0652C13.4888 20.3806 13.4007 20.8044 13.083 21.0118L11.5716 21.9987L13.0378 22.7516C13.3755 22.9251 13.5077 23.3374 13.3331 23.6728C13.1584 24.0081 12.7431 24.1393 12.4054 23.9659L9.8944 22.6765C9.66996 22.5612 9.52716 22.3331 9.52238 22.0823L9.46438 19.0378C9.45719 18.6604 9.75949 18.3486 10.1396 18.3415C10.5197 18.3343 10.8337 18.6345 10.8408 19.0119L10.8752 20.8173L12.3266 19.8696C12.6443 19.6622 13.0711 19.7498 13.28 20.0652Z" fill="white"/>
<path fill-rule="evenodd" clip-rule="evenodd" d="M13.4539 11.63C13.6389 11.3002 13.5197 10.884 13.1876 10.7002L11.6561 9.85302L13.0285 9.14829C13.3661 8.97489 13.4983 8.56249 13.3237 8.22719C13.1491 7.89188 12.7337 7.76063 12.3961 7.93404L9.88503 9.22349C9.66059 9.33874 9.51779 9.56683 9.51301 9.81769L9.45501 12.8622C9.44782 13.2396 9.75012 13.5513 10.1302 13.5585C10.5103 13.5656 10.8243 13.2654 10.8315 12.888L10.8678 10.9818L12.5176 11.8944C12.8497 12.0782 13.2689 11.9598 13.4539 11.63Z" fill="white"/>
<path fill-rule="evenodd" clip-rule="evenodd" d="M27.8625 11.6319C27.6775 11.3022 27.7967 10.8859 28.1288 10.7022L29.6603 9.85497L28.2879 9.15024C27.9503 8.97684 27.8181 8.56445 27.9927 8.22914C28.1674 7.89383 28.5827 7.76259 28.9204 7.93599L31.4314 9.22544C31.6558 9.3407 31.7986 9.56879 31.8034 9.81964L31.8614 12.8641C31.8686 13.2415 31.5663 13.5533 31.1862 13.5604C30.8061 13.5676 30.4921 13.2674 30.4849 12.89L30.4486 10.9837L28.7988 11.8964C28.4667 12.0801 28.0475 11.9617 27.8625 11.6319Z" fill="white"/>
<path fill-rule="evenodd" clip-rule="evenodd" d="M24.0489 13.5146C23.8753 13.1788 23.4604 13.0463 23.1222 13.2186L20.6625 14.4721L18.2715 13.2219C17.9351 13.0461 17.5188 13.1742 17.3417 13.5083C17.1646 13.8423 17.2937 14.2556 17.6301 14.4315L19.9701 15.655L19.9701 18.3011C19.9701 18.6786 20.2783 18.9846 20.6584 18.9846C21.0386 18.9846 21.3468 18.6786 21.3468 18.3011L21.3468 15.6599L23.7508 14.4348C24.089 14.2625 24.2225 13.8505 24.0489 13.5146Z" fill="white"/>
</svg>
