<svg width="96" height="32" viewBox="0 0 96 32" fill="none" xmlns="http://www.w3.org/2000/svg">
<rect width="96" height="32" rx="3" fill="#59CBC3"/>
<path fill-rule="evenodd" clip-rule="evenodd" d="M8 5.64459C8 5.28859 8.28859 5 8.64459 5H12.0824C12.4384 5 12.727 5.28859 12.727 5.64459C12.727 6.00058 12.4384 6.28917 12.0824 6.28917H9.28917V9.08239C9.28917 9.43838 9.00058 9.72697 8.64459 9.72697C8.28859 9.72697 8 9.43838 8 9.08239V5.64459Z" fill="white"/>
<path fill-rule="evenodd" clip-rule="evenodd" d="M8 27.1308C8 27.4868 8.28859 27.7754 8.64459 27.7754H12.0824C12.4384 27.7754 12.727 27.4868 12.727 27.1308C12.727 26.7748 12.4384 26.4862 12.0824 26.4862H9.28917V23.693C9.28917 23.337 9.00058 23.0484 8.64459 23.0484C8.28859 23.0484 8 23.337 8 23.693V27.1308Z" fill="white"/>
<path fill-rule="evenodd" clip-rule="evenodd" d="M30.7773 5.64459C30.7773 5.28859 30.4888 5 30.1328 5H26.695C26.339 5 26.0504 5.28859 26.0504 5.64459C26.0504 6.00058 26.339 6.28917 26.695 6.28917H29.4882V9.08239C29.4882 9.43838 29.7768 9.72697 30.1328 9.72697C30.4888 9.72697 30.7773 9.43838 30.7773 9.08239V5.64459Z" fill="white"/>
<path fill-rule="evenodd" clip-rule="evenodd" d="M30.7773 27.1308C30.7773 27.4868 30.4888 27.7754 30.1328 27.7754H26.695C26.339 27.7754 26.0504 27.4868 26.0504 27.1308C26.0504 26.7748 26.339 26.4862 26.695 26.4862H29.4882V23.693C29.4882 23.337 29.7768 23.0484 30.1328 23.0484C30.4888 23.0484 30.7773 23.337 30.7773 23.693V27.1308Z" fill="white"/>
<path fill-rule="evenodd" clip-rule="evenodd" d="M15.8229 9.89457C14.8113 10.7384 14.1094 12.0398 13.9735 13.8798C13.8871 15.0499 13.9315 15.6674 14.0807 16.6672L13.6557 16.7306C13.5024 15.7036 13.4559 15.054 13.545 13.8481C13.6883 11.9081 14.4349 10.4926 15.5476 9.56456C16.6568 8.6394 18.1093 8.21533 19.6386 8.21533C22.7499 8.21533 25.0679 10.6824 25.2429 13.8521C25.3082 15.0347 25.2518 15.6875 25.0974 16.7304L24.6723 16.6675C24.8235 15.6465 24.8772 15.0233 24.8139 13.8758C24.6497 10.903 22.492 8.64506 19.6386 8.64506C18.1856 8.64506 16.838 9.04786 15.8229 9.89457Z" fill="white"/>
<path fill-rule="evenodd" clip-rule="evenodd" d="M13.8046 17.6089C13.7809 17.4753 13.7587 17.34 13.7383 17.2031L14.1633 17.1396C14.1832 17.2726 14.2046 17.404 14.2277 17.5337L13.8046 17.6089ZM24.9437 17.2028C24.9239 17.3364 24.9026 17.4686 24.8796 17.5995L24.4563 17.5253C24.4786 17.3982 24.4994 17.2697 24.5186 17.1399L24.9437 17.2028ZM24.719 18.3876C24.657 18.6536 24.5882 18.9133 24.5132 19.166L24.1013 19.0438C24.1738 18.7993 24.2404 18.5479 24.3005 18.29L24.719 18.3876ZM14.189 19.2094C14.1099 18.9525 14.0375 18.6874 13.9721 18.4144L14.3901 18.3144C14.4533 18.5787 14.5234 18.835 14.5997 19.083L14.189 19.2094ZM24.2596 19.9313C24.1647 20.1892 24.0629 20.4386 23.9547 20.6786L23.5629 20.5021C23.6668 20.2716 23.7648 20.0316 23.8563 19.7829L24.2596 19.9313ZM14.7858 20.749C14.6699 20.5064 14.5607 20.2531 14.459 19.9896L14.8598 19.8348C14.9577 20.0883 15.0625 20.3313 15.1736 20.5638L14.7858 20.749ZM23.5941 21.4027C23.4603 21.6461 23.3194 21.8775 23.1719 22.096L22.8157 21.8557C22.9555 21.6485 23.0897 21.4282 23.2175 21.1957L23.5941 21.4027ZM15.6299 22.1758C15.4709 21.9579 15.3186 21.7259 15.174 21.4801L15.5443 21.2621C15.6821 21.4962 15.8266 21.7164 15.977 21.9225L15.6299 22.1758ZM22.6814 22.747C22.4997 22.9623 22.3104 23.1601 22.1145 23.3388L21.8249 23.0213C22.006 22.8561 22.1825 22.6719 22.353 22.4698L22.6814 22.747ZM16.7647 23.3999C16.5559 23.2265 16.3533 23.0334 16.1582 22.8214L16.4743 22.5304C16.6572 22.729 16.846 22.9088 17.0393 23.0694L16.7647 23.3999ZM21.4627 23.8464C21.2231 24.0026 20.976 24.1318 20.723 24.2317L20.5653 23.8319C20.7893 23.7435 21.0108 23.628 21.228 23.4864L21.4627 23.8464ZM18.2222 24.2495C17.9611 24.1564 17.7042 24.0351 17.4536 23.8871L17.6721 23.5171C17.9005 23.652 18.1327 23.7613 18.3666 23.8448L18.2222 24.2495ZM19.9082 24.4456C19.768 24.4642 19.6268 24.4737 19.4849 24.4737C19.3415 24.4737 19.1981 24.465 19.0551 24.4477L19.1066 24.0211C19.2327 24.0363 19.3589 24.044 19.4849 24.044C19.6076 24.044 19.7299 24.0358 19.8516 24.0196L19.9082 24.4456Z" fill="white"/>
<path fill-rule="evenodd" clip-rule="evenodd" d="M10.418 16.9351C10.418 16.8164 10.5142 16.7202 10.6328 16.7202H27.9412C28.0599 16.7202 28.1561 16.8164 28.1561 16.9351C28.1561 17.0537 28.0599 17.1499 27.9412 17.1499H10.6328C10.5142 17.1499 10.418 17.0537 10.418 16.9351Z" fill="white"/>
<path d="M38.292 12.9109H35.168V11.7785H42.7048V12.9109H39.5807V20.8903H38.292V12.9109Z" fill="white"/>
<path d="M50.8653 20.8903L48.8997 18.0917C48.6567 18.109 48.4658 18.1177 48.327 18.1177H46.0751V20.8903H44.7734V11.7785H48.327C49.5072 11.7785 50.4357 12.0605 51.1126 12.6246C51.7895 13.1886 52.1279 13.9653 52.1279 14.9546C52.1279 15.6575 51.9544 16.2563 51.6073 16.7509C51.2601 17.2456 50.7655 17.6057 50.1233 17.8313L52.2841 20.8903H50.8653ZM48.2879 17.0113C49.1123 17.0113 49.7415 16.8334 50.1754 16.4776C50.6093 16.1218 50.8262 15.6141 50.8262 14.9546C50.8262 14.2951 50.6093 13.7917 50.1754 13.4446C49.7415 13.0888 49.1123 12.9109 48.2879 12.9109H46.0751V17.0113H48.2879Z" fill="white"/>
<path d="M58.2433 17.7402V20.8903H56.9546V17.7142L53.3359 11.7785H54.7287L57.6445 16.5817L60.5733 11.7785H61.862L58.2433 17.7402Z" fill="white"/>
<path d="M72.0935 20.9945C71.1736 20.9945 70.3449 20.7949 69.6073 20.3957C68.8696 19.9878 68.2882 19.4281 67.863 18.7165C67.4464 18.0049 67.2382 17.2109 67.2382 16.3344C67.2382 15.4579 67.4464 14.6639 67.863 13.9523C68.2882 13.2407 68.8696 12.6853 69.6073 12.2861C70.3449 11.8782 71.1736 11.6743 72.0935 11.6743C73.0047 11.6743 73.8291 11.8782 74.5667 12.2861C75.3043 12.6853 75.8814 13.2407 76.298 13.9523C76.7145 14.6552 76.9228 15.4492 76.9228 16.3344C76.9228 17.2195 76.7145 18.0179 76.298 18.7295C75.8814 19.4324 75.3043 19.9878 74.5667 20.3957C73.8291 20.7949 73.0047 20.9945 72.0935 20.9945ZM72.0935 19.8359C72.7617 19.8359 73.3605 19.6841 73.8898 19.3804C74.4279 19.0766 74.8487 18.6601 75.1525 18.1307C75.4649 17.5927 75.6211 16.9939 75.6211 16.3344C75.6211 15.6749 75.4649 15.0804 75.1525 14.5511C74.8487 14.013 74.4279 13.5921 73.8898 13.2884C73.3605 12.9847 72.7617 12.8328 72.0935 12.8328C71.4253 12.8328 70.8178 12.9847 70.2711 13.2884C69.7331 13.5921 69.3079 14.013 68.9955 14.5511C68.6917 15.0804 68.5399 15.6749 68.5399 16.3344C68.5399 16.9939 68.6917 17.5927 68.9955 18.1307C69.3079 18.6601 69.7331 19.0766 70.2711 19.3804C70.8178 19.6841 71.4253 19.8359 72.0935 19.8359Z" fill="white"/>
<path d="M87.3994 11.7785V20.8903H86.332L80.8649 14.0955V20.8903H79.5632V11.7785H80.6306L86.0977 18.5733V11.7785H87.3994Z" fill="white"/>
</svg>
